<svg width="83" height="84" viewBox="0 0 83 84" fill="none" xmlns="http://www.w3.org/2000/svg">
<path d="M30.3486 50.6738C29.2765 52.8093 28.1483 55.2634 27.3242 57.5928C26.8302 58.9891 26.4315 60.3805 26.2256 61.6553C26.0246 62.8999 25.9808 64.1892 26.3438 65.2959C26.9301 67.084 28.273 69.7797 29.7344 72.4863C30.8992 74.6437 32.1797 76.8782 33.3018 78.7939C31.3092 77.6964 28.9378 76.5041 26.5859 75.5996C25.0957 75.0265 23.5762 74.5545 22.1426 74.3008C20.7266 74.0502 19.281 73.9917 17.9961 74.3535C15.8055 74.9705 12.9145 76.4139 10.1553 77.9629C7.9935 79.1764 5.83755 80.4986 4.03906 81.6406C4.98885 79.5698 6.08067 77.0707 7.00195 74.6299C7.58638 73.0815 8.1104 71.5367 8.48828 70.1279C8.86003 68.742 9.11661 67.3923 9.10645 66.2676C9.09606 65.1193 8.74057 63.8217 8.25391 62.543C7.75739 61.2385 7.07765 59.8334 6.32227 58.4365C5.11566 56.2052 3.67874 53.9285 2.39844 52.0078C4.34918 52.9388 6.63328 53.9639 8.89258 54.8232C11.7171 55.8976 14.6978 56.7933 16.9609 56.8115C19.2016 56.8296 21.8937 55.7232 24.3613 54.4072C26.4373 53.3002 28.5298 51.9442 30.3486 50.6738Z" stroke="#FEBF00" stroke-width="3"/>
<path d="M38.3768 46.096C46.8544 41.2609 67.2777 25.6726 81.1501 2M27.3945 31.0105C28.9359 26.7556 31.4406 22.8876 29.7066 10.1229M45.8911 58.2804C51.6712 60.021 62.0755 62.9221 74.7919 55.3793" stroke="#FEBF00" stroke-width="3" stroke-linecap="round"/>
</svg>
